<mxfile host="app.diagrams.net" modified="2022-10-13T22:00:19.884Z" agent="5.0 (Windows)" etag="AxQwMC-TaEkIpq0OOBdu" version="20.4.0" type="github">
  <diagram id="9wN0dKwCbyhMYcGL-Tr_" name="Page-1">
    <mxGraphModel dx="1396" dy="1240" grid="1" gridSize="10" guides="1" tooltips="1" connect="1" arrows="1" fold="1" page="1" pageScale="1" pageWidth="850" pageHeight="1100" math="0" shadow="0">
      <root>
        <mxCell id="0" />
        <mxCell id="1" parent="0" />
        <mxCell id="MDP4NH8N46IhiBC8FI1W-1" value="User" style="swimlane;fillColor=#cce5ff;strokeColor=#36393d;" vertex="1" parent="1">
          <mxGeometry x="80" y="160" width="280" height="840" as="geometry" />
        </mxCell>
        <mxCell id="MDP4NH8N46IhiBC8FI1W-10" style="edgeStyle=orthogonalEdgeStyle;rounded=0;orthogonalLoop=1;jettySize=auto;html=1;exitX=0.5;exitY=1;exitDx=0;exitDy=0;entryX=0.5;entryY=0;entryDx=0;entryDy=0;" edge="1" parent="MDP4NH8N46IhiBC8FI1W-1" source="MDP4NH8N46IhiBC8FI1W-4" target="MDP4NH8N46IhiBC8FI1W-7">
          <mxGeometry relative="1" as="geometry" />
        </mxCell>
        <mxCell id="MDP4NH8N46IhiBC8FI1W-4" value="&lt;div&gt;Login and provide&lt;/div&gt;&lt;div&gt;basic user pfrofile&lt;br&gt;&lt;/div&gt;" style="rounded=1;whiteSpace=wrap;html=1;fillColor=#647687;strokeColor=#314354;fontColor=#ffffff;" vertex="1" parent="MDP4NH8N46IhiBC8FI1W-1">
          <mxGeometry x="80" y="100" width="120" height="50" as="geometry" />
        </mxCell>
        <mxCell id="MDP4NH8N46IhiBC8FI1W-9" style="edgeStyle=orthogonalEdgeStyle;rounded=0;orthogonalLoop=1;jettySize=auto;html=1;exitX=0.5;exitY=1;exitDx=0;exitDy=0;entryX=0.5;entryY=0;entryDx=0;entryDy=0;" edge="1" parent="MDP4NH8N46IhiBC8FI1W-1" source="MDP4NH8N46IhiBC8FI1W-5" target="MDP4NH8N46IhiBC8FI1W-4">
          <mxGeometry relative="1" as="geometry" />
        </mxCell>
        <mxCell id="MDP4NH8N46IhiBC8FI1W-5" value="" style="ellipse;whiteSpace=wrap;html=1;aspect=fixed;fillColor=#000000;" vertex="1" parent="MDP4NH8N46IhiBC8FI1W-1">
          <mxGeometry x="125" y="50" width="30" height="30" as="geometry" />
        </mxCell>
        <mxCell id="MDP4NH8N46IhiBC8FI1W-7" value="&lt;div&gt;Fill in Personality &lt;br&gt;&lt;/div&gt;&lt;div&gt;questionaire&lt;br&gt;&lt;/div&gt;" style="rounded=1;whiteSpace=wrap;html=1;fillColor=#647687;strokeColor=#314354;fontColor=#ffffff;" vertex="1" parent="MDP4NH8N46IhiBC8FI1W-1">
          <mxGeometry x="80" y="190" width="120" height="50" as="geometry" />
        </mxCell>
        <mxCell id="MDP4NH8N46IhiBC8FI1W-45" style="edgeStyle=orthogonalEdgeStyle;rounded=0;orthogonalLoop=1;jettySize=auto;html=1;exitX=0.25;exitY=1;exitDx=0;exitDy=0;entryX=0.561;entryY=0.004;entryDx=0;entryDy=0;entryPerimeter=0;" edge="1" parent="MDP4NH8N46IhiBC8FI1W-1">
          <mxGeometry relative="1" as="geometry">
            <mxPoint x="172.99999999999966" y="680" as="sourcePoint" />
            <mxPoint x="140.32000000000005" y="700.2" as="targetPoint" />
          </mxGeometry>
        </mxCell>
        <mxCell id="MDP4NH8N46IhiBC8FI1W-35" value="" style="rounded=0;whiteSpace=wrap;html=1;fillColor=#000000;" vertex="1" parent="MDP4NH8N46IhiBC8FI1W-1">
          <mxGeometry x="80" y="670" width="400" height="10" as="geometry" />
        </mxCell>
        <mxCell id="MDP4NH8N46IhiBC8FI1W-49" style="edgeStyle=orthogonalEdgeStyle;rounded=0;orthogonalLoop=1;jettySize=auto;html=1;exitX=0.5;exitY=1;exitDx=0;exitDy=0;entryX=0.5;entryY=0;entryDx=0;entryDy=0;" edge="1" parent="MDP4NH8N46IhiBC8FI1W-1" source="MDP4NH8N46IhiBC8FI1W-39" target="MDP4NH8N46IhiBC8FI1W-47">
          <mxGeometry relative="1" as="geometry" />
        </mxCell>
        <mxCell id="MDP4NH8N46IhiBC8FI1W-39" value="Show users personality" style="rounded=1;whiteSpace=wrap;html=1;fillColor=#647687;strokeColor=#314354;fontColor=#ffffff;" vertex="1" parent="MDP4NH8N46IhiBC8FI1W-1">
          <mxGeometry x="80" y="700" width="120" height="50" as="geometry" />
        </mxCell>
        <mxCell id="MDP4NH8N46IhiBC8FI1W-48" value="" style="group" vertex="1" connectable="0" parent="MDP4NH8N46IhiBC8FI1W-1">
          <mxGeometry x="122.5" y="787.5" width="35" height="35" as="geometry" />
        </mxCell>
        <mxCell id="MDP4NH8N46IhiBC8FI1W-47" value="" style="ellipse;whiteSpace=wrap;html=1;aspect=fixed;fillColor=#FFFFFF;strokeColor=default;" vertex="1" parent="MDP4NH8N46IhiBC8FI1W-48">
          <mxGeometry width="35" height="35" as="geometry" />
        </mxCell>
        <mxCell id="MDP4NH8N46IhiBC8FI1W-46" value="" style="ellipse;whiteSpace=wrap;html=1;aspect=fixed;fillColor=#000000;" vertex="1" parent="MDP4NH8N46IhiBC8FI1W-48">
          <mxGeometry x="2.5" y="2.5" width="30" height="30" as="geometry" />
        </mxCell>
        <mxCell id="MDP4NH8N46IhiBC8FI1W-2" value="System" style="swimlane;fillColor=#eeeeee;strokeColor=#36393d;" vertex="1" parent="1">
          <mxGeometry x="360" y="160" width="280" height="840" as="geometry" />
        </mxCell>
        <mxCell id="MDP4NH8N46IhiBC8FI1W-24" style="edgeStyle=orthogonalEdgeStyle;rounded=0;orthogonalLoop=1;jettySize=auto;html=1;exitX=0.5;exitY=1;exitDx=0;exitDy=0;entryX=0.15;entryY=0;entryDx=0;entryDy=0;entryPerimeter=0;" edge="1" parent="MDP4NH8N46IhiBC8FI1W-2" source="MDP4NH8N46IhiBC8FI1W-6" target="MDP4NH8N46IhiBC8FI1W-20">
          <mxGeometry relative="1" as="geometry" />
        </mxCell>
        <mxCell id="MDP4NH8N46IhiBC8FI1W-6" value="&lt;div&gt;Obtain user-provided&lt;/div&gt;&lt;div&gt;data&lt;br&gt;&lt;/div&gt;" style="rounded=1;whiteSpace=wrap;html=1;fillColor=#647687;strokeColor=#314354;fontColor=#ffffff;" vertex="1" parent="MDP4NH8N46IhiBC8FI1W-2">
          <mxGeometry x="80" y="100" width="120" height="50" as="geometry" />
        </mxCell>
        <mxCell id="MDP4NH8N46IhiBC8FI1W-28" style="edgeStyle=orthogonalEdgeStyle;rounded=0;orthogonalLoop=1;jettySize=auto;html=1;exitX=0.5;exitY=1;exitDx=0;exitDy=0;entryX=0.5;entryY=0;entryDx=0;entryDy=0;" edge="1" parent="MDP4NH8N46IhiBC8FI1W-2" source="MDP4NH8N46IhiBC8FI1W-20" target="MDP4NH8N46IhiBC8FI1W-25">
          <mxGeometry relative="1" as="geometry">
            <Array as="points">
              <mxPoint x="140" y="247" />
            </Array>
          </mxGeometry>
        </mxCell>
        <mxCell id="MDP4NH8N46IhiBC8FI1W-20" value="" style="rounded=0;whiteSpace=wrap;html=1;fillColor=#000000;" vertex="1" parent="MDP4NH8N46IhiBC8FI1W-2">
          <mxGeometry x="80" y="237" width="400" height="10" as="geometry" />
        </mxCell>
        <mxCell id="MDP4NH8N46IhiBC8FI1W-27" style="edgeStyle=orthogonalEdgeStyle;rounded=0;orthogonalLoop=1;jettySize=auto;html=1;exitX=0.5;exitY=1;exitDx=0;exitDy=0;entryX=0.5;entryY=0;entryDx=0;entryDy=0;" edge="1" parent="MDP4NH8N46IhiBC8FI1W-2" source="MDP4NH8N46IhiBC8FI1W-25" target="MDP4NH8N46IhiBC8FI1W-26">
          <mxGeometry relative="1" as="geometry" />
        </mxCell>
        <mxCell id="MDP4NH8N46IhiBC8FI1W-25" value="Preprocess data" style="rounded=1;whiteSpace=wrap;html=1;fillColor=#647687;strokeColor=#314354;fontColor=#ffffff;" vertex="1" parent="MDP4NH8N46IhiBC8FI1W-2">
          <mxGeometry x="80" y="270" width="120" height="50" as="geometry" />
        </mxCell>
        <mxCell id="MDP4NH8N46IhiBC8FI1W-30" style="edgeStyle=orthogonalEdgeStyle;rounded=0;orthogonalLoop=1;jettySize=auto;html=1;exitX=0.5;exitY=1;exitDx=0;exitDy=0;entryX=0.5;entryY=0;entryDx=0;entryDy=0;" edge="1" parent="MDP4NH8N46IhiBC8FI1W-2" source="MDP4NH8N46IhiBC8FI1W-26" target="MDP4NH8N46IhiBC8FI1W-29">
          <mxGeometry relative="1" as="geometry" />
        </mxCell>
        <mxCell id="MDP4NH8N46IhiBC8FI1W-26" value="Extract features from processed data" style="rounded=1;whiteSpace=wrap;html=1;fillColor=#647687;strokeColor=#314354;fontColor=#ffffff;" vertex="1" parent="MDP4NH8N46IhiBC8FI1W-2">
          <mxGeometry x="80" y="340" width="120" height="50" as="geometry" />
        </mxCell>
        <mxCell id="MDP4NH8N46IhiBC8FI1W-36" style="edgeStyle=orthogonalEdgeStyle;rounded=0;orthogonalLoop=1;jettySize=auto;html=1;exitX=0.5;exitY=1;exitDx=0;exitDy=0;entryX=0.5;entryY=0;entryDx=0;entryDy=0;" edge="1" parent="MDP4NH8N46IhiBC8FI1W-2" source="MDP4NH8N46IhiBC8FI1W-29" target="MDP4NH8N46IhiBC8FI1W-32">
          <mxGeometry relative="1" as="geometry" />
        </mxCell>
        <mxCell id="MDP4NH8N46IhiBC8FI1W-29" value="Create/update model" style="rounded=1;whiteSpace=wrap;html=1;fillColor=#647687;strokeColor=#314354;fontColor=#ffffff;" vertex="1" parent="MDP4NH8N46IhiBC8FI1W-2">
          <mxGeometry x="80" y="430" width="120" height="50" as="geometry" />
        </mxCell>
        <mxCell id="MDP4NH8N46IhiBC8FI1W-31" value="KMeans" style="text;html=1;strokeColor=none;fillColor=none;align=center;verticalAlign=middle;whiteSpace=wrap;rounded=0;" vertex="1" parent="MDP4NH8N46IhiBC8FI1W-2">
          <mxGeometry x="140" y="396" width="60" height="30" as="geometry" />
        </mxCell>
        <mxCell id="MDP4NH8N46IhiBC8FI1W-37" style="edgeStyle=orthogonalEdgeStyle;rounded=0;orthogonalLoop=1;jettySize=auto;html=1;exitX=0.5;exitY=1;exitDx=0;exitDy=0;entryX=0.5;entryY=0;entryDx=0;entryDy=0;" edge="1" parent="MDP4NH8N46IhiBC8FI1W-2" source="MDP4NH8N46IhiBC8FI1W-32" target="MDP4NH8N46IhiBC8FI1W-34">
          <mxGeometry relative="1" as="geometry" />
        </mxCell>
        <mxCell id="MDP4NH8N46IhiBC8FI1W-32" value="Evaluate model" style="rounded=1;whiteSpace=wrap;html=1;fillColor=#647687;strokeColor=#314354;fontColor=#ffffff;" vertex="1" parent="MDP4NH8N46IhiBC8FI1W-2">
          <mxGeometry x="80" y="510" width="120" height="50" as="geometry" />
        </mxCell>
        <mxCell id="MDP4NH8N46IhiBC8FI1W-34" value="Analyze and predict users personality" style="rounded=1;whiteSpace=wrap;html=1;fillColor=#647687;strokeColor=#314354;fontColor=#ffffff;" vertex="1" parent="MDP4NH8N46IhiBC8FI1W-2">
          <mxGeometry x="80" y="590" width="120" height="50" as="geometry" />
        </mxCell>
        <mxCell id="MDP4NH8N46IhiBC8FI1W-40" value="Add new personality feature" style="rounded=1;whiteSpace=wrap;html=1;fillColor=#647687;strokeColor=#314354;fontColor=#ffffff;" vertex="1" parent="MDP4NH8N46IhiBC8FI1W-2">
          <mxGeometry x="80" y="700" width="120" height="50" as="geometry" />
        </mxCell>
        <mxCell id="MDP4NH8N46IhiBC8FI1W-3" value="SyStem Admin" style="swimlane;fillColor=#cce5ff;strokeColor=#36393d;" vertex="1" parent="1">
          <mxGeometry x="640" y="160" width="280" height="840" as="geometry" />
        </mxCell>
        <mxCell id="MDP4NH8N46IhiBC8FI1W-19" style="edgeStyle=orthogonalEdgeStyle;rounded=0;orthogonalLoop=1;jettySize=auto;html=1;exitX=0.5;exitY=1;exitDx=0;exitDy=0;entryX=0.5;entryY=0;entryDx=0;entryDy=0;" edge="1" parent="MDP4NH8N46IhiBC8FI1W-3" source="MDP4NH8N46IhiBC8FI1W-11" target="MDP4NH8N46IhiBC8FI1W-18">
          <mxGeometry relative="1" as="geometry" />
        </mxCell>
        <mxCell id="MDP4NH8N46IhiBC8FI1W-11" value="&lt;div&gt;Collect required&lt;/div&gt;&lt;div&gt;data&lt;br&gt;&lt;/div&gt;" style="rounded=1;whiteSpace=wrap;html=1;fillColor=#647687;strokeColor=#314354;fontColor=#ffffff;" vertex="1" parent="MDP4NH8N46IhiBC8FI1W-3">
          <mxGeometry x="80" y="100" width="120" height="50" as="geometry" />
        </mxCell>
        <mxCell id="MDP4NH8N46IhiBC8FI1W-13" style="edgeStyle=orthogonalEdgeStyle;rounded=0;orthogonalLoop=1;jettySize=auto;html=1;exitX=0.5;exitY=1;exitDx=0;exitDy=0;entryX=0.5;entryY=0;entryDx=0;entryDy=0;" edge="1" parent="MDP4NH8N46IhiBC8FI1W-3" source="MDP4NH8N46IhiBC8FI1W-12" target="MDP4NH8N46IhiBC8FI1W-11">
          <mxGeometry relative="1" as="geometry" />
        </mxCell>
        <mxCell id="MDP4NH8N46IhiBC8FI1W-12" value="" style="ellipse;whiteSpace=wrap;html=1;aspect=fixed;fillColor=#000000;" vertex="1" parent="MDP4NH8N46IhiBC8FI1W-3">
          <mxGeometry x="125" y="50" width="30" height="30" as="geometry" />
        </mxCell>
        <mxCell id="MDP4NH8N46IhiBC8FI1W-18" value="Load/update data into database" style="rounded=1;whiteSpace=wrap;html=1;fillColor=#647687;strokeColor=#314354;fontColor=#ffffff;" vertex="1" parent="MDP4NH8N46IhiBC8FI1W-3">
          <mxGeometry x="80" y="170" width="120" height="50" as="geometry" />
        </mxCell>
        <mxCell id="MDP4NH8N46IhiBC8FI1W-8" style="edgeStyle=orthogonalEdgeStyle;rounded=0;orthogonalLoop=1;jettySize=auto;html=1;entryX=0;entryY=0.5;entryDx=0;entryDy=0;" edge="1" parent="1" source="MDP4NH8N46IhiBC8FI1W-7" target="MDP4NH8N46IhiBC8FI1W-6">
          <mxGeometry relative="1" as="geometry">
            <Array as="points">
              <mxPoint x="350" y="380" />
              <mxPoint x="350" y="290" />
            </Array>
          </mxGeometry>
        </mxCell>
        <mxCell id="MDP4NH8N46IhiBC8FI1W-23" style="edgeStyle=orthogonalEdgeStyle;rounded=0;orthogonalLoop=1;jettySize=auto;html=1;exitX=0.5;exitY=1;exitDx=0;exitDy=0;entryX=0.847;entryY=0;entryDx=0;entryDy=0;entryPerimeter=0;" edge="1" parent="1" source="MDP4NH8N46IhiBC8FI1W-18" target="MDP4NH8N46IhiBC8FI1W-20">
          <mxGeometry relative="1" as="geometry" />
        </mxCell>
        <mxCell id="MDP4NH8N46IhiBC8FI1W-38" style="edgeStyle=orthogonalEdgeStyle;rounded=0;orthogonalLoop=1;jettySize=auto;html=1;exitX=0.5;exitY=1;exitDx=0;exitDy=0;entryX=0.844;entryY=0.2;entryDx=0;entryDy=0;entryPerimeter=0;" edge="1" parent="1" source="MDP4NH8N46IhiBC8FI1W-34" target="MDP4NH8N46IhiBC8FI1W-35">
          <mxGeometry relative="1" as="geometry" />
        </mxCell>
        <mxCell id="MDP4NH8N46IhiBC8FI1W-42" style="edgeStyle=orthogonalEdgeStyle;rounded=0;orthogonalLoop=1;jettySize=auto;html=1;exitX=0.75;exitY=1;exitDx=0;exitDy=0;entryX=0.438;entryY=0.027;entryDx=0;entryDy=0;entryPerimeter=0;" edge="1" parent="1">
          <mxGeometry relative="1" as="geometry">
            <mxPoint x="465" y="840" as="sourcePoint" />
            <mxPoint x="497.55999999999995" y="861.3500000000001" as="targetPoint" />
          </mxGeometry>
        </mxCell>
      </root>
    </mxGraphModel>
  </diagram>
</mxfile>
